<svg xmlns="http://www.w3.org/2000/svg" width="160" height="160" viewBox="0 0 160 160"><defs></defs><ellipse cx="80" cy="156" rx="28" ry="5" fill="#000" opacity=".35"/><path d="M53 52 L63 52 L56 84 L46 84Z" fill="#C83A32" stroke="#7c241f" stroke-width="1.5"/><circle cx="51" cy="88" r="5.5" fill="#C98F62" stroke="#916747"/><path d="M97 52 L107 52 L108 92 L98 92Z" fill="#C83A32" stroke="#7c241f" stroke-width="1.5"/><circle cx="103" cy="96" r="5.5" fill="#C98F62" stroke="#916747"/><path d="M62 98 h16 l-1 46 h-14z" fill="#3A5A8A" stroke="#233653" stroke-width="1.5"/><path d="M61 142 h17 q3 0 3 6 v4 h-21z" fill="#EEE" stroke="#000883" stroke-width="1.5"/><path d="M82 98 h16 l-1 50 h-14z" fill="#3A5A8A" stroke="#233653" stroke-width="1.5"/><path d="M81 146 h17 q3 0 3 6 v4 h-21z" fill="#EEE" stroke="#000883" stroke-width="1.5"/><path d="M58 50 Q80 44 102 50 L100 100 H60 Z" fill="#C83A32" stroke="#7c241f" stroke-width="2"/><path d="M66 48 q14 18 28 0 q-4 14 -14 14 q-10 0 -14 -14z" fill="#7c241f"/><rect x="75" y="42" width="10" height="10" fill="#916747"/><ellipse cx="80" cy="32" rx="13" ry="14" fill="#C98F62" stroke="#916747" stroke-width="1.5"/><ellipse cx="80" cy="31" rx="14" ry="15" fill="#4A2E1C"/></svg>