<svg xmlns="http://www.w3.org/2000/svg" width="160" height="160" viewBox="0 0 160 160"><defs></defs><g transform="translate(160 0) scale(-1 1)"><ellipse cx="80" cy="156" rx="28" ry="5" fill="#000" opacity=".35"/><g transform="rotate(14 80 54)"><path d="M74 52 h12 l-1 34 h-10z" fill="#F2C230" stroke="#96781e" stroke-width="1.5"/><circle cx="80" cy="90" r="5.5" fill="#F0CBA4" stroke="#ad9276"/></g><g transform="rotate(8 80 98)"><path d="M72 98 h16 l3 50 h-14z" fill="#2E4E7A" stroke="#1c2f49" stroke-width="1.5"/><path d="M75 146 h17 q3 0 3 6 v4 h-21z" fill="#C8322A" stroke="#6e1c17" stroke-width="1.5"/></g><g transform="rotate(-8 80 98)"><path d="M72 98 h16 l3 50 h-14z" fill="#2E4E7A" stroke="#1c2f49" stroke-width="1.5"/><path d="M75 146 h17 q3 0 3 6 v4 h-21z" fill="#C8322A" stroke="#6e1c17" stroke-width="1.5"/></g><path d="M68 50 q12 -4 24 0 l2 52 h-28z" fill="#F2C230" stroke="#96781e" stroke-width="2"/><rect x="75" y="42" width="10" height="10" fill="#ad9276"/><ellipse cx="80" cy="32" rx="13" ry="14" fill="#F0CBA4" stroke="#ad9276" stroke-width="1.5"/><path d="M92 31 l4 5 l-4 1z" fill="#F0CBA4" stroke="#ad9276"/><ellipse cx="87" cy="32" rx="2" ry="2.6" fill="#1A1414"/><path d="M84 27 l6 -1" stroke="#141217" stroke-width="2"/><path d="M86 40 h5" stroke="#5A2A22" stroke-width="1.5"/><ellipse cx="77" cy="33" rx="3" ry="4" fill="#ad9276"/><path d="M66 34 q-1 -18 15 -17 q12 1 13 12 q-8 -4 -14 -2 q-4 6 -6 14z" fill="#16141A"/><path d="M66 30 q-12 6 -10 22 q8 -6 10 -18z" fill="#16141A"/><g transform="rotate(-14 80 54)"><path d="M74 52 h12 l-1 34 h-10z" fill="#F2C230" stroke="#96781e" stroke-width="1.5"/><circle cx="80" cy="90" r="5.5" fill="#F0CBA4" stroke="#ad9276"/></g></g></svg>