<svg xmlns="http://www.w3.org/2000/svg" width="160" height="160" viewBox="0 0 160 160"><defs></defs><ellipse cx="80" cy="156" rx="28" ry="5" fill="#000" opacity=".35"/><path d="M53 52 L63 52 L56 84 L46 84Z" fill="#3AA8A0" stroke="#246863" stroke-width="1.5"/><circle cx="51" cy="88" r="5.5" fill="#8E5A3A" stroke="#66412a"/><path d="M97 52 L107 52 L108 92 L98 92Z" fill="#3AA8A0" stroke="#246863" stroke-width="1.5"/><circle cx="103" cy="96" r="5.5" fill="#8E5A3A" stroke="#66412a"/><path d="M62 98 h16 l-1 46 h-14z" fill="#3AA8A0" stroke="#236560" stroke-width="1.5"/><path d="M61 142 h17 q3 0 3 6 v4 h-21z" fill="#FFF" stroke="#00088c" stroke-width="1.5"/><path d="M82 98 h16 l-1 50 h-14z" fill="#3AA8A0" stroke="#236560" stroke-width="1.5"/><path d="M81 146 h17 q3 0 3 6 v4 h-21z" fill="#FFF" stroke="#00088c" stroke-width="1.5"/><path d="M58 50 Q80 44 102 50 L100 100 H60 Z" fill="#3AA8A0" stroke="#246863" stroke-width="2"/><rect x="75" y="42" width="10" height="10" fill="#66412a"/><ellipse cx="80" cy="32" rx="13" ry="14" fill="#8E5A3A" stroke="#66412a" stroke-width="1.5"/><ellipse cx="80" cy="31" rx="14" ry="15" fill="#1E1410"/><circle cx="80" cy="20" r="7" fill="#1E1410"/></svg>