<svg xmlns="http://www.w3.org/2000/svg" width="160" height="160" viewBox="0 0 160 160"><defs></defs><ellipse cx="80" cy="156" rx="28" ry="5" fill="#000" opacity=".35"/><path d="M62 98 h16 l-1 50 h-14z" fill="#2A2A3A" stroke="#191923" stroke-width="1.5"/><path d="M61 146 h17 q3 0 3 6 v4 h-21z" fill="#8A5A3A" stroke="#4c3220" stroke-width="1.5"/><path d="M82 98 h16 l-1 46 h-14z" fill="#2A2A3A" stroke="#191923" stroke-width="1.5"/><path d="M81 142 h17 q3 0 3 6 v4 h-21z" fill="#8A5A3A" stroke="#4c3220" stroke-width="1.5"/><path d="M58 50 Q80 44 102 50 L100 100 H60 Z" fill="#7A4AB0" stroke="#4c2e6d" stroke-width="2"/><path d="M60 92 h40 v8 h-40z" fill="#4c2e6d"/><path d="M72 50 q8 6 16 0" fill="none" stroke="#4c2e6d" stroke-width="3"/><path d="M64 28 q0 -14 16 -14 q16 0 16 14 v26 q0 6 -6 6 h-20 q-6 0 -6 -6z" fill="#E8C860"/><rect x="75" y="42" width="10" height="10" fill="#b19784"/><ellipse cx="80" cy="32" rx="13" ry="14" fill="#F6D2B8" stroke="#b19784" stroke-width="1.5"/><ellipse cx="67" cy="33" rx="2.5" ry="4" fill="#F6D2B8" stroke="#b19784"/><ellipse cx="93" cy="33" rx="2.5" ry="4" fill="#F6D2B8" stroke="#b19784"/><ellipse cx="75" cy="33" rx="2.6" ry="3" fill="#FFF"/><ellipse cx="85" cy="33" rx="2.6" ry="3" fill="#FFF"/><circle cx="75" cy="33.5" r="1.6" fill="#1A1414"/><circle cx="85" cy="33.5" r="1.6" fill="#1A1414"/><path d="M72 28 l5 1 M88 28 l-5 1" stroke="#d1b456" stroke-width="1.8" stroke-linecap="round"/><path d="M76 40 q4 -2 8 0" stroke="#5A2A22" stroke-width="1.6" fill="none"/><path d="M66 31 q0 -17 14 -17 q14 0 14 17 q-6 -8 -14 -8 q-8 0 -14 8z" fill="#E8C860"/><path d="M53 52 L63 52 L56 92 L46 92Z" fill="#7A4AB0" stroke="#4c2e6d" stroke-width="1.5"/><circle cx="51" cy="96" r="5.5" fill="#F6D2B8" stroke="#b19784"/><path d="M97 52 L107 52 L108 84 L98 84Z" fill="#7A4AB0" stroke="#4c2e6d" stroke-width="1.5"/><circle cx="103" cy="88" r="5.5" fill="#F6D2B8" stroke="#b19784"/></svg>