<svg xmlns="http://www.w3.org/2000/svg" width="160" height="160" viewBox="0 0 160 160"><defs></defs><ellipse cx="80" cy="156" rx="34" ry="6" fill="#000" opacity=".4"/><path d="M61 100 h18 l-1 44 h-16z" fill="#1E1A26" stroke="#121017" stroke-width="1.5"/><path d="M60 142 h20 q3 0 3 6 v4 h-23z" fill="#1A1410"/><path d="M81 100 h18 l-1 48 h-16z" fill="#1E1A26" stroke="#121017" stroke-width="1.5"/><path d="M80 146 h20 q3 0 3 6 v4 h-23z" fill="#1A1410"/><path d="M54 46 Q80 38 106 46 L104 104 H56 Z" fill="#2A2234" stroke="#120E18" stroke-width="2"/><path d="M56 48 l-4 40 h10 l4 -38z" fill="#2A2234" stroke="#120E18" stroke-width="1.5"/><path d="M104 48 l4 40 h-10 l-4 -38z" fill="#2A2234" stroke="#120E18" stroke-width="1.5"/><ellipse cx="80" cy="28" rx="14" ry="15" fill="#1A1218"/><path d="M66 28 q-4 24 4 32 h20 q8 -8 4 -32z" fill="#1A1218"/><path d="M74 16 q6 -6 12 0" stroke="#C8323A" stroke-width="4" fill="none"/></svg>