<svg xmlns="http://www.w3.org/2000/svg" width="160" height="160" viewBox="0 0 160 160"><defs></defs><ellipse cx="80" cy="156" rx="34" ry="6" fill="#000" opacity=".4"/><path d="M61 100 h18 l-1 44 h-16z" fill="#3E3420" stroke="#251f13" stroke-width="1.5"/><path d="M60 142 h20 q3 0 3 6 v4 h-23z" fill="#1A1410"/><path d="M81 100 h18 l-1 48 h-16z" fill="#3E3420" stroke="#251f13" stroke-width="1.5"/><path d="M80 146 h20 q3 0 3 6 v4 h-23z" fill="#1A1410"/><path d="M54 46 Q80 38 106 46 L104 104 H56 Z" fill="#5A4A2A" stroke="#2E2614" stroke-width="2"/><path d="M56 100 l-2 10 l6 -4 l4 8 l4 -8 l6 6 l4 -6 l6 8 l4 -8 l6 6 l4 -8 l4 6 l0 -10z" fill="#5A4A2A"/><path d="M60 52 l-6 -6 M100 52 l6 -6" stroke="#D8B860" stroke-width="2"/><ellipse cx="80" cy="28" rx="15" ry="16" fill="#B89A62" stroke="#6A5430" stroke-width="2"/><path d="M71 25 l5 -3 l1 6z M89 25 l-5 -3 l-1 6z" fill="#120E08"/><circle cx="75" cy="27" r="1.2" fill="#F2E85A"/><circle cx="85" cy="27" r="1.2" fill="#F2E85A"/><path d="M72 36 q8 4 16 0" stroke="#3A2A12" stroke-width="2" fill="none"/><path d="M74 34 v5 M78 35 v5 M82 35 v5 M86 34 v5" stroke="#3A2A12" stroke-width="1.5"/><path d="M67 38 q13 7 26 0" stroke="#5A4426" stroke-width="3" fill="none"/><path d="M56 19 h48 l-8 -5 h-32z" fill="#8A6A3A" stroke="#4A3A1E" stroke-width="1.5"/><path d="M66 14 q14 -14 28 0z" fill="#8A6A3A" stroke="#4A3A1E" stroke-width="1.5"/><path d="M58 20 l-4 6 M102 20 l4 6 M64 20 l-2 7" stroke="#D8B860" stroke-width="1.5"/><path d="M56 48 l-8 40 h10 l6 -38z" fill="#5A4A2A" stroke="#2E2614" stroke-width="1.5"/><circle cx="51" cy="90" r="6" fill="#1E1A18"/><path d="M104 48 l8 40 h-10 l-6 -38z" fill="#5A4A2A" stroke="#2E2614" stroke-width="1.5"/><circle cx="109" cy="90" r="6" fill="#1E1A18"/><g transform="translate(109 90) rotate(160) scale(1.1)"><rect x="-3" y="-4" width="6" height="22" rx="2" fill="#6A4A2A" stroke="#2A1A0A"/><path d="M-2 -4 V-14 q0 -22 24 -24 q-18 6 -18 24 V-4z" fill="#9AA0A8" stroke="#3A3C42" stroke-width="1.5"/></g></svg>