<svg xmlns="http://www.w3.org/2000/svg" width="44" height="44" viewBox="0 0 44 44"><defs></defs><circle cx="22" cy="22" r="21" fill="#1A1E22" stroke="#C8C2A8" stroke-width="1.5"/><g transform="translate(22 24) scale(0.62) translate(-80 -34)"><path d="M54 66 Q80 52 106 66 L108 80 H52Z" fill="#3AA8A0"/><rect x="75" y="42" width="10" height="10" fill="#66412a"/><ellipse cx="80" cy="32" rx="13" ry="14" fill="#8E5A3A" stroke="#66412a" stroke-width="1.5"/><ellipse cx="67" cy="33" rx="2.5" ry="4" fill="#8E5A3A" stroke="#66412a"/><ellipse cx="93" cy="33" rx="2.5" ry="4" fill="#8E5A3A" stroke="#66412a"/><ellipse cx="75" cy="33" rx="2.6" ry="3" fill="#FFF"/><ellipse cx="85" cy="33" rx="2.6" ry="3" fill="#FFF"/><circle cx="75" cy="33.5" r="1.6" fill="#1A1414"/><circle cx="85" cy="33.5" r="1.6" fill="#1A1414"/><path d="M72 28 l5 1 M88 28 l-5 1" stroke="#1b120e" stroke-width="1.8" stroke-linecap="round"/><path d="M76 40 q4 -2 8 0" stroke="#5A2A22" stroke-width="1.6" fill="none"/><path d="M66 31 q0 -17 14 -17 q14 0 14 17 q-6 -8 -14 -8 q-8 0 -14 8z" fill="#1E1410"/><circle cx="80" cy="14" r="7" fill="#1E1410"/></g></svg>