<svg xmlns="http://www.w3.org/2000/svg" width="480" height="360" viewBox="0 0 480 360"><defs><linearGradient id="mbg" x1="0" x2="0" y1="0" y2="1"><stop offset="0" stop-color="#06080E"/><stop offset="1" stop-color="#2A1E2A"/></linearGradient><radialGradient id="mmo"><stop offset="0" stop-color="#C8D4D8" stop-opacity="0.4"/><stop offset="1" stop-color="#C8D4D8" stop-opacity="0"/></radialGradient><linearGradient id="ttl" x1="0" x2="0" y1="0" y2="1"><stop offset="0" stop-color="#FFE8B0"/><stop offset=".55" stop-color="#F09A3A"/><stop offset="1" stop-color="#A8281A"/></linearGradient></defs><rect width="480" height="360" fill="url(#mbg)"/><circle cx="400" cy="70" r="70" fill="url(#mmo)"/><circle cx="400" cy="70" r="24" fill="#E8EADA" opacity=".9"/><path d="M0 300 L40 250 L60 270 L90 230 L120 262 L160 220 L200 270 L240 240 L280 268 L330 226 L370 262 L420 232 L480 270 L480 360 L0 360Z" fill="#06080A"/><text x="243" y="60" font-family="Marker" font-weight="bold" font-size="34" text-anchor="middle" fill="#000" opacity=".6">SURVIVE UNTIL DAYLIGHT</text><text x="240" y="56" font-family="Marker" font-weight="bold" font-size="34" text-anchor="middle" fill="url(#ttl)" stroke="#120608" stroke-width="7" paint-order="stroke" stroke-linejoin="round">SURVIVE UNTIL DAYLIGHT</text><text x="240" y="96" font-family="Sans Serif" font-weight="bold" font-size="18" text-anchor="middle" fill="#F4F1E6" stroke="#0A0C0E" stroke-width="2.6" paint-order="stroke" stroke-linejoin="round" >CHOOSE YOUR SIDE</text><rect x="40" y="110" width="190" height="210" rx="14" fill="#0E1A22" stroke="#7AB8F0" stroke-width="4"/><g transform="translate(55 112) scale(1)"><ellipse cx="80" cy="156" rx="28" ry="5" fill="#000" opacity=".35"/><path d="M62 98 h16 l-1 46 h-14z" fill="#3A5A8A" stroke="#233653" stroke-width="1.5"/><path d="M61 142 h17 q3 0 3 6 v4 h-21z" fill="#EEE" stroke="#000883" stroke-width="1.5"/><path d="M82 98 h16 l-1 50 h-14z" fill="#3A5A8A" stroke="#233653" stroke-width="1.5"/><path d="M81 146 h17 q3 0 3 6 v4 h-21z" fill="#EEE" stroke="#000883" stroke-width="1.5"/><path d="M58 50 Q80 44 102 50 L100 100 H60 Z" fill="#C83A32" stroke="#7c241f" stroke-width="2"/><path d="M70 50 q10 12 20 0" fill="none" stroke="#7c241f" stroke-width="2"/><path d="M76 56 v10 M84 56 v10" stroke="#EEE" stroke-width="1.5"/><path d="M68 84 h24 v10 h-24z" fill="#7c241f" opacity=".5"/><rect x="75" y="42" width="10" height="10" fill="#916747"/><ellipse cx="80" cy="32" rx="13" ry="14" fill="#C98F62" stroke="#916747" stroke-width="1.5"/><ellipse cx="67" cy="33" rx="2.5" ry="4" fill="#C98F62" stroke="#916747"/><ellipse cx="93" cy="33" rx="2.5" ry="4" fill="#C98F62" stroke="#916747"/><ellipse cx="75" cy="33" rx="2.6" ry="3" fill="#FFF"/><ellipse cx="85" cy="33" rx="2.6" ry="3" fill="#FFF"/><circle cx="75" cy="33.5" r="1.6" fill="#1A1414"/><circle cx="85" cy="33.5" r="1.6" fill="#1A1414"/><path d="M72 28 l5 1 M88 28 l-5 1" stroke="#432919" stroke-width="1.8" stroke-linecap="round"/><path d="M76 40 q4 -2 8 0" stroke="#5A2A22" stroke-width="1.6" fill="none"/><path d="M66 31 q0 -17 14 -17 q14 0 14 17 q-6 -8 -14 -8 q-8 0 -14 8z" fill="#4A2E1C"/><path d="M53 52 L63 52 L56 84 L46 84Z" fill="#C83A32" stroke="#7c241f" stroke-width="1.5"/><circle cx="51" cy="88" r="5.5" fill="#C98F62" stroke="#916747"/><path d="M97 52 L107 52 L108 92 L98 92Z" fill="#C83A32" stroke="#7c241f" stroke-width="1.5"/><circle cx="103" cy="96" r="5.5" fill="#C98F62" stroke="#916747"/></g><text x="135" y="300" font-family="Sans Serif" font-weight="bold" font-size="24" text-anchor="middle" fill="#9AD0FF" stroke="#0A0C0E" stroke-width="3.4" paint-order="stroke" stroke-linejoin="round" >SURVIVOR</text><rect x="250" y="110" width="190" height="210" rx="14" fill="#220E0E" stroke="#E85A4A" stroke-width="4"/><g transform="translate(265 112) scale(1)"><ellipse cx="80" cy="156" rx="34" ry="6" fill="#000" opacity=".4"/><path d="M61 100 h18 l-1 44 h-16z" fill="#3A3028" stroke="#231d18" stroke-width="1.5"/><path d="M60 142 h20 q3 0 3 6 v4 h-23z" fill="#1A1410"/><path d="M81 100 h18 l-1 48 h-16z" fill="#3A3028" stroke="#231d18" stroke-width="1.5"/><path d="M80 146 h20 q3 0 3 6 v4 h-23z" fill="#1A1410"/><path d="M54 46 Q80 38 106 46 L104 104 H56 Z" fill="#4A3A2E" stroke="#261C14" stroke-width="2"/><path d="M80 46 V104" stroke="#261C14" stroke-width="2"/><rect x="64" y="70" width="10" height="10" fill="#261C14"/><rect x="86" y="70" width="10" height="10" fill="#261C14"/><ellipse cx="80" cy="28" rx="13" ry="15" fill="#ECE8DC" stroke="#9A968A" stroke-width="1.5"/><path d="M71 24 q4 -3 7 0 q-1 4 -3.5 4 q-3 0 -3.5 -4z M89 24 q-4 -3 -7 0 q1 4 3.5 4 q3 0 3.5 -4z" fill="#0E0C0A"/><g fill="#3A3630"><circle cx="76" cy="34" r="1"/><circle cx="80" cy="35" r="1"/><circle cx="84" cy="34" r="1"/><circle cx="78" cy="38" r="1"/><circle cx="82" cy="38" r="1"/><circle cx="80" cy="18" r="1"/></g><path d="M69 19 l4 -3 l3 3 M91 19 l-4 -3 l-3 3" stroke="#C8323A" stroke-width="2" fill="none"/><path d="M67 26 h-4 M93 26 h4" stroke="#3A2A20" stroke-width="2.5"/><path d="M56 48 l-8 40 h10 l6 -38z" fill="#4A3A2E" stroke="#261C14" stroke-width="1.5"/><circle cx="51" cy="90" r="6" fill="#1E1A18"/><path d="M104 48 l8 40 h-10 l-6 -38z" fill="#4A3A2E" stroke="#261C14" stroke-width="1.5"/><circle cx="109" cy="90" r="6" fill="#1E1A18"/><g transform="translate(109 90) rotate(160) scale(1.1)"><rect x="-3" y="-4" width="6" height="22" rx="2" fill="#4A2E1A" stroke="#1E120A"/><path d="M-4 -4 v-32 h22 q4 0 4 4 v28z" fill="#B8BCC4" stroke="#3A3C42" stroke-width="1.5"/><path d="M14 -36 q4 0 4 4 v28 h-4z" fill="#E8ECF2"/><circle cx="2" cy="-30" r="2.4" fill="#3A3C42"/></g></g><text x="345" y="300" font-family="Sans Serif" font-weight="bold" font-size="24" text-anchor="middle" fill="#FF8A7A" stroke="#0A0C0E" stroke-width="3.4" paint-order="stroke" stroke-linejoin="round" >KILLER</text><text x="240" y="346" font-family="Sans Serif" font-weight="bold" font-size="11" text-anchor="middle" fill="#C8C2A8" stroke="#0A0C0E" stroke-width="1.6" paint-order="stroke" stroke-linejoin="round" >Online: only one player can be the killer - if it's taken you'll join as a survivor.</text></svg>