<svg xmlns="http://www.w3.org/2000/svg" width="480" height="360" viewBox="0 0 480 360"><defs><radialGradient id="dk2" cx=".5" cy=".35" r=".8"><stop offset="0" stop-color="#7A1A1E"/><stop offset=".6" stop-color="#2A0608"/><stop offset="1" stop-color="#050102"/></radialGradient></defs><rect width="480" height="360" fill="url(#dk2)"/><path d="M20 360 q-20 -90 10 -180 q10 -40 -10 -70" stroke="#2A0608" stroke-width="10" fill="none" stroke-linecap="round"/><path d="M75 360 q0 -90 -20 -180 q10 -40 -10 -70" stroke="#2A0608" stroke-width="8" fill="none" stroke-linecap="round"/><path d="M130 360 q20 -90 10 -180 q10 -40 -10 -70" stroke="#2A0608" stroke-width="6" fill="none" stroke-linecap="round"/><path d="M185 360 q-20 -90 -20 -180 q10 -40 -10 -70" stroke="#2A0608" stroke-width="10" fill="none" stroke-linecap="round"/><path d="M240 360 q0 -90 10 -180 q10 -40 -10 -70" stroke="#2A0608" stroke-width="8" fill="none" stroke-linecap="round"/><path d="M295 360 q20 -90 -20 -180 q10 -40 -10 -70" stroke="#2A0608" stroke-width="6" fill="none" stroke-linecap="round"/><path d="M350 360 q-20 -90 10 -180 q10 -40 -10 -70" stroke="#2A0608" stroke-width="10" fill="none" stroke-linecap="round"/><path d="M405 360 q0 -90 -20 -180 q10 -40 -10 -70" stroke="#2A0608" stroke-width="8" fill="none" stroke-linecap="round"/><path d="M460 360 q20 -90 10 -180 q10 -40 -10 -70" stroke="#2A0608" stroke-width="6" fill="none" stroke-linecap="round"/><ellipse cx="240" cy="330" rx="200" ry="30" fill="#000" opacity=".6"/></svg>